<svg width="67" height="64" viewBox="0 0 67 64" fill="none" xmlns="http://www.w3.org/2000/svg">
<path d="M31 31.8947L62.6632 31.8947M62.6632 31.8947L52.5147 42M62.6632 31.8947L52.5147 21.7895" stroke="white" stroke-width="8" stroke-linecap="round" stroke-linejoin="round"/>
<path fill-rule="evenodd" clip-rule="evenodd" d="M8 0C3.58172 0 0 3.58172 0 8V56C0 60.4183 3.58172 64 8 64H35C39.4183 64 43 60.4183 43 56V40.8372L31.2279 40.8372C26.4076 40.8372 22.5 36.8807 22.5 32C22.5 27.1193 26.4076 23.1628 31.2279 23.1628H43V8C43 3.58172 39.4183 0 35 0H8Z" fill="white"/>
</svg>
